<svg xmlns="http://www.w3.org/2000/svg" width="940" height="398" viewBox="0 0 940 398">

    <style>
      .card { fill: #ffffff; stroke: #d9d9d9; stroke-width: 1.2; }
      .title { font: 700 22px Arial, sans-serif; fill: #1d1d1d; }
      .label { font: 400 18px Arial, sans-serif; fill: #1d1d1d; }
      .value { font: 700 18px Arial, sans-serif; fill: #1d1d1d; }
      .track { fill: #ededed; }
    </style>
    
<rect class="card" x="8" y="8" width="924" height="382" rx="18" ry="18"/>

    <g transform="translate(18,14)">
      <rect x="0" y="0" rx="4" ry="4" width="20" height="20" fill="none" stroke="#ff1a1a" stroke-width="2"/>
      <line x1="0" y1="6" x2="20" y2="6" stroke="#ff1a1a" stroke-width="2"/>
      <line x1="5" y1="-2" x2="5" y2="4" stroke="#ff1a1a" stroke-width="2"/>
      <line x1="15" y1="-2" x2="15" y2="4" stroke="#ff1a1a" stroke-width="2"/>
    </g>
    
<text class="title" x="54" y="33">Dziś</text>
<text class="label" x="26" y="72">Zużycie domu</text>
<text class="value" x="430" y="72" text-anchor="end">0,8 kWh</text>
<rect class="track" x="510" y="60" width="360" height="8" rx="4" ry="4"/>
<rect x="510" y="60" width="160.0" height="8" rx="4" ry="4" fill="#ff1a1a"/>
<text class="label" x="26" y="106">EV</text>
<text class="value" x="430" y="106" text-anchor="end">0 kWh</text>
<rect class="track" x="510" y="94" width="360" height="8" rx="4" ry="4"/>
<text class="label" x="26" y="140">Zużycie łączne</text>
<text class="value" x="430" y="140" text-anchor="end">1 kWh</text>
<rect class="track" x="510" y="128" width="360" height="8" rx="4" ry="4"/>
<rect x="510" y="128" width="160.0" height="8" rx="4" ry="4" fill="#7d0000"/>
<text class="label" x="26" y="174">PV</text>
<text class="value" x="430" y="174" text-anchor="end">2 kWh</text>
<rect class="track" x="510" y="162" width="360" height="8" rx="4" ry="4"/>
<rect x="510" y="162" width="360.0" height="8" rx="4" ry="4" fill="#ff1a1a"/>
<text class="label" x="26" y="208">Import</text>
<text class="value" x="430" y="208" text-anchor="end">1 kWh</text>
<rect class="track" x="510" y="196" width="360" height="8" rx="4" ry="4"/>
<rect x="510" y="196" width="140.0" height="8" rx="4" ry="4" fill="#ff1a1a"/>
<text class="label" x="26" y="242">Eksport</text>
<text class="value" x="430" y="242" text-anchor="end">0 kWh</text>
<rect class="track" x="510" y="230" width="360" height="8" rx="4" ry="4"/>
<text class="label" x="26" y="276">Ładowanie magazynu</text>
<text class="value" x="430" y="276" text-anchor="end">0 kWh</text>
<rect class="track" x="510" y="264" width="360" height="8" rx="4" ry="4"/>
<rect x="510" y="264" width="100.0" height="8" rx="4" ry="4" fill="#ff1a1a"/>
<text class="label" x="26" y="310">Rozładowanie magazynu</text>
<text class="value" x="430" y="310" text-anchor="end">1 kWh</text>
<rect class="track" x="510" y="298" width="360" height="8" rx="4" ry="4"/>
<rect x="510" y="298" width="200.0" height="8" rx="4" ry="4" fill="#ff1a1a"/>
<text class="label" x="26" y="344">Sprawność systemu</text>
<text class="value" x="430" y="344" text-anchor="end">0 %</text>
<rect class="track" x="510" y="332" width="360" height="8" rx="4" ry="4"/>
</svg>