<svg class="chart-svg" viewBox="0 0 1200 576" preserveAspectRatio="xMidYMid meet" width="100%" height="100%" role="img" aria-label="Wykres dla 2026-07-11" xmlns="http://www.w3.org/2000/svg" style="shape-rendering:geometricPrecision;text-rendering:geometricPrecision"><defs><style>.chart-bg{fill:#fff}.grid{stroke:#dce3ec;stroke-width:1;vector-effect:non-scaling-stroke}.slot-grid{stroke:#f1f5f9;stroke-width:.65;vector-effect:non-scaling-stroke}.hour-grid{stroke:#e2e8f0;stroke-width:1.05;vector-effect:non-scaling-stroke}.zero{stroke:#6b7280;stroke-width:1.35;vector-effect:non-scaling-stroke}.axis{fill:#68768b;font-size:22px;font-family:Arial,Helvetica,sans-serif}.axis-title{fill:#516078;font-size:22px;font-family:Arial,Helvetica,sans-serif;font-weight:600}.soc-axis{fill:#f97316}.sale-bar{fill:#059669;fill-opacity:.78}.purchase-bar{fill:#dc2626;fill-opacity:.72}.price-line{fill:none;stroke:#2563eb;stroke-linejoin:miter;stroke-linecap:butt;vector-effect:non-scaling-stroke}.soc-line{fill:none;stroke:#f97316;stroke-linejoin:miter;stroke-linecap:butt}</style></defs><rect class="chart-bg" x="0" y="0" width="1200" height="576" rx="10"/><line x1="150.0" y1="498.00" x2="1104.0" y2="498.00" class="grid"/><text x="136.0" y="506.00" text-anchor="end" class="axis">-0,36</text><line x1="150.0" y1="421.67" x2="1104.0" y2="421.67" class="grid"/><text x="136.0" y="429.67" text-anchor="end" class="axis">-0,14</text><line x1="150.0" y1="345.33" x2="1104.0" y2="345.33" class="grid"/><text x="136.0" y="353.33" text-anchor="end" class="axis">0,08</text><line x1="150.0" y1="269.00" x2="1104.0" y2="269.00" class="grid"/><text x="136.0" y="277.00" text-anchor="end" class="axis">0,30</text><line x1="150.0" y1="192.67" x2="1104.0" y2="192.67" class="grid"/><text x="136.0" y="200.67" text-anchor="end" class="axis">0,53</text><line x1="150.0" y1="116.33" x2="1104.0" y2="116.33" class="grid"/><text x="136.0" y="124.33" text-anchor="end" class="axis">0,75</text><line x1="150.0" y1="40.00" x2="1104.0" y2="40.00" class="grid"/><text x="136.0" y="48.00" text-anchor="end" class="axis">0,97</text><line x1="150.00" y1="40.0" x2="150.00" y2="498.0" class="hour-grid"/><line x1="159.94" y1="40.0" x2="159.94" y2="498.0" class="slot-grid"/><line x1="169.88" y1="40.0" x2="169.88" y2="498.0" class="slot-grid"/><line x1="179.81" y1="40.0" x2="179.81" y2="498.0" class="slot-grid"/><line x1="189.75" y1="40.0" x2="189.75" y2="498.0" class="hour-grid"/><line x1="199.69" y1="40.0" x2="199.69" y2="498.0" class="slot-grid"/><line x1="209.62" y1="40.0" x2="209.62" y2="498.0" class="slot-grid"/><line x1="219.56" y1="40.0" x2="219.56" y2="498.0" class="slot-grid"/><line x1="229.50" y1="40.0" x2="229.50" y2="498.0" class="hour-grid"/><line x1="239.44" y1="40.0" x2="239.44" y2="498.0" class="slot-grid"/><line x1="249.38" y1="40.0" x2="249.38" y2="498.0" class="slot-grid"/><line x1="259.31" y1="40.0" x2="259.31" y2="498.0" class="slot-grid"/><line x1="269.25" y1="40.0" x2="269.25" y2="498.0" class="hour-grid"/><line x1="279.19" y1="40.0" x2="279.19" y2="498.0" class="slot-grid"/><line x1="289.12" y1="40.0" x2="289.12" y2="498.0" class="slot-grid"/><line x1="299.06" y1="40.0" x2="299.06" y2="498.0" class="slot-grid"/><line x1="309.00" y1="40.0" x2="309.00" y2="498.0" class="hour-grid"/><line x1="318.94" y1="40.0" x2="318.94" y2="498.0" class="slot-grid"/><line x1="328.88" y1="40.0" x2="328.88" y2="498.0" class="slot-grid"/><line x1="338.81" y1="40.0" x2="338.81" y2="498.0" class="slot-grid"/><line x1="348.75" y1="40.0" x2="348.75" y2="498.0" class="hour-grid"/><line x1="358.69" y1="40.0" x2="358.69" y2="498.0" class="slot-grid"/><line x1="368.62" y1="40.0" x2="368.62" y2="498.0" class="slot-grid"/><line x1="378.56" y1="40.0" x2="378.56" y2="498.0" class="slot-grid"/><line x1="388.50" y1="40.0" x2="388.50" y2="498.0" class="hour-grid"/><line x1="398.44" y1="40.0" x2="398.44" y2="498.0" class="slot-grid"/><line x1="408.38" y1="40.0" x2="408.38" y2="498.0" class="slot-grid"/><line x1="418.31" y1="40.0" x2="418.31" y2="498.0" class="slot-grid"/><line x1="428.25" y1="40.0" x2="428.25" y2="498.0" class="hour-grid"/><line x1="438.19" y1="40.0" x2="438.19" y2="498.0" class="slot-grid"/><line x1="448.12" y1="40.0" x2="448.12" y2="498.0" class="slot-grid"/><line x1="458.06" y1="40.0" x2="458.06" y2="498.0" class="slot-grid"/><line x1="468.00" y1="40.0" x2="468.00" y2="498.0" class="hour-grid"/><line x1="477.94" y1="40.0" x2="477.94" y2="498.0" class="slot-grid"/><line x1="487.88" y1="40.0" x2="487.88" y2="498.0" class="slot-grid"/><line x1="497.81" y1="40.0" x2="497.81" y2="498.0" class="slot-grid"/><line x1="507.75" y1="40.0" x2="507.75" y2="498.0" class="hour-grid"/><line x1="517.69" y1="40.0" x2="517.69" y2="498.0" class="slot-grid"/><line x1="527.62" y1="40.0" x2="527.62" y2="498.0" class="slot-grid"/><line x1="537.56" y1="40.0" x2="537.56" y2="498.0" class="slot-grid"/><line x1="547.50" y1="40.0" x2="547.50" y2="498.0" class="hour-grid"/><line x1="557.44" y1="40.0" x2="557.44" y2="498.0" class="slot-grid"/><line x1="567.38" y1="40.0" x2="567.38" y2="498.0" class="slot-grid"/><line x1="577.31" y1="40.0" x2="577.31" y2="498.0" class="slot-grid"/><line x1="587.25" y1="40.0" x2="587.25" y2="498.0" class="hour-grid"/><line x1="597.19" y1="40.0" x2="597.19" y2="498.0" class="slot-grid"/><line x1="607.12" y1="40.0" x2="607.12" y2="498.0" class="slot-grid"/><line x1="617.06" y1="40.0" x2="617.06" y2="498.0" class="slot-grid"/><line x1="627.00" y1="40.0" x2="627.00" y2="498.0" class="hour-grid"/><line x1="636.94" y1="40.0" x2="636.94" y2="498.0" class="slot-grid"/><line x1="646.88" y1="40.0" x2="646.88" y2="498.0" class="slot-grid"/><line x1="656.81" y1="40.0" x2="656.81" y2="498.0" class="slot-grid"/><line x1="666.75" y1="40.0" x2="666.75" y2="498.0" class="hour-grid"/><line x1="676.69" y1="40.0" x2="676.69" y2="498.0" class="slot-grid"/><line x1="686.62" y1="40.0" x2="686.62" y2="498.0" class="slot-grid"/><line x1="696.56" y1="40.0" x2="696.56" y2="498.0" class="slot-grid"/><line x1="706.50" y1="40.0" x2="706.50" y2="498.0" class="hour-grid"/><line x1="716.44" y1="40.0" x2="716.44" y2="498.0" class="slot-grid"/><line x1="726.38" y1="40.0" x2="726.38" y2="498.0" class="slot-grid"/><line x1="736.31" y1="40.0" x2="736.31" y2="498.0" class="slot-grid"/><line x1="746.25" y1="40.0" x2="746.25" y2="498.0" class="hour-grid"/><line x1="756.19" y1="40.0" x2="756.19" y2="498.0" class="slot-grid"/><line x1="766.12" y1="40.0" x2="766.12" y2="498.0" class="slot-grid"/><line x1="776.06" y1="40.0" x2="776.06" y2="498.0" class="slot-grid"/><line x1="786.00" y1="40.0" x2="786.00" y2="498.0" class="hour-grid"/><line x1="795.94" y1="40.0" x2="795.94" y2="498.0" class="slot-grid"/><line x1="805.88" y1="40.0" x2="805.88" y2="498.0" class="slot-grid"/><line x1="815.81" y1="40.0" x2="815.81" y2="498.0" class="slot-grid"/><line x1="825.75" y1="40.0" x2="825.75" y2="498.0" class="hour-grid"/><line x1="835.69" y1="40.0" x2="835.69" y2="498.0" class="slot-grid"/><line x1="845.62" y1="40.0" x2="845.62" y2="498.0" class="slot-grid"/><line x1="855.56" y1="40.0" x2="855.56" y2="498.0" class="slot-grid"/><line x1="865.50" y1="40.0" x2="865.50" y2="498.0" class="hour-grid"/><line x1="875.44" y1="40.0" x2="875.44" y2="498.0" class="slot-grid"/><line x1="885.38" y1="40.0" x2="885.38" y2="498.0" class="slot-grid"/><line x1="895.31" y1="40.0" x2="895.31" y2="498.0" class="slot-grid"/><line x1="905.25" y1="40.0" x2="905.25" y2="498.0" class="hour-grid"/><line x1="915.19" y1="40.0" x2="915.19" y2="498.0" class="slot-grid"/><line x1="925.12" y1="40.0" x2="925.12" y2="498.0" class="slot-grid"/><line x1="935.06" y1="40.0" x2="935.06" y2="498.0" class="slot-grid"/><line x1="945.00" y1="40.0" x2="945.00" y2="498.0" class="hour-grid"/><line x1="954.94" y1="40.0" x2="954.94" y2="498.0" class="slot-grid"/><line x1="964.88" y1="40.0" x2="964.88" y2="498.0" class="slot-grid"/><line x1="974.81" y1="40.0" x2="974.81" y2="498.0" class="slot-grid"/><line x1="984.75" y1="40.0" x2="984.75" y2="498.0" class="hour-grid"/><line x1="994.69" y1="40.0" x2="994.69" y2="498.0" class="slot-grid"/><line x1="1004.62" y1="40.0" x2="1004.62" y2="498.0" class="slot-grid"/><line x1="1014.56" y1="40.0" x2="1014.56" y2="498.0" class="slot-grid"/><line x1="1024.50" y1="40.0" x2="1024.50" y2="498.0" class="hour-grid"/><line x1="1034.44" y1="40.0" x2="1034.44" y2="498.0" class="slot-grid"/><line x1="1044.38" y1="40.0" x2="1044.38" y2="498.0" class="slot-grid"/><line x1="1054.31" y1="40.0" x2="1054.31" y2="498.0" class="slot-grid"/><line x1="1064.25" y1="40.0" x2="1064.25" y2="498.0" class="hour-grid"/><line x1="1074.19" y1="40.0" x2="1074.19" y2="498.0" class="slot-grid"/><line x1="1084.12" y1="40.0" x2="1084.12" y2="498.0" class="slot-grid"/><line x1="1094.06" y1="40.0" x2="1094.06" y2="498.0" class="slot-grid"/><line x1="1104.00" y1="40.0" x2="1104.00" y2="498.0" class="hour-grid"/><text x="150.00" y="552" text-anchor="middle" class="axis">00:00</text><text x="229.50" y="552" text-anchor="middle" class="axis">02:00</text><text x="309.00" y="552" text-anchor="middle" class="axis">04:00</text><text x="388.50" y="552" text-anchor="middle" class="axis">06:00</text><text x="468.00" y="552" text-anchor="middle" class="axis">08:00</text><text x="547.50" y="552" text-anchor="middle" class="axis">10:00</text><text x="627.00" y="552" text-anchor="middle" class="axis">12:00</text><text x="706.50" y="552" text-anchor="middle" class="axis">14:00</text><text x="786.00" y="552" text-anchor="middle" class="axis">16:00</text><text x="865.50" y="552" text-anchor="middle" class="axis">18:00</text><text x="945.00" y="552" text-anchor="middle" class="axis">20:00</text><text x="1024.50" y="552" text-anchor="middle" class="axis">22:00</text><text x="1104.00" y="552" text-anchor="middle" class="axis">24:00</text><text x="32" y="288.00" text-anchor="middle" transform="rotate(-90 32 288.00)" class="axis-title">PLN/kWh oraz PLN/slot</text><line x1="150.0" y1="373.26" x2="1104.0" y2="373.26" class="zero"/><line x1="1104.00" y1="40.00" x2="1104.00" y2="373.26" class="vgrid"/><line x1="1104.00" y1="373.26" x2="1111.00" y2="373.26" class="vgrid"/><text x="1118.00" y="381.26" text-anchor="start" class="axis soc-axis">0</text><line x1="1104.00" y1="310.38" x2="1111.00" y2="310.38" class="vgrid"/><text x="1118.00" y="318.38" text-anchor="start" class="axis soc-axis">20</text><line x1="1104.00" y1="247.50" x2="1111.00" y2="247.50" class="vgrid"/><text x="1118.00" y="255.50" text-anchor="start" class="axis soc-axis">40</text><line x1="1104.00" y1="184.62" x2="1111.00" y2="184.62" class="vgrid"/><text x="1118.00" y="192.62" text-anchor="start" class="axis soc-axis">60</text><line x1="1104.00" y1="121.74" x2="1111.00" y2="121.74" class="vgrid"/><text x="1118.00" y="129.74" text-anchor="start" class="axis soc-axis">80</text><line x1="1104.00" y1="58.86" x2="1111.00" y2="58.86" class="vgrid"/><text x="1118.00" y="66.86" text-anchor="start" class="axis soc-axis">100</text><text x="1174" y="206.63" text-anchor="middle" transform="rotate(90 1174 206.63)" class="axis-title soc-axis">SOC [%]</text><rect class="purchase-bar" data-slot-start="02:00" data-slot-end="02:15" x="229.70" y="373.26" width="9.54" height="21.64"><title>02:00–02:15 | zakup: 0,06 PLN</title></rect><rect class="purchase-bar" data-slot-start="02:30" data-slot-end="02:45" x="249.57" y="373.26" width="9.54" height="21.64"><title>02:30–02:45 | zakup: 0,06 PLN</title></rect><rect class="purchase-bar" data-slot-start="02:45" data-slot-end="03:00" x="259.51" y="373.26" width="9.54" height="21.64"><title>02:45–03:00 | zakup: 0,06 PLN</title></rect><rect class="purchase-bar" data-slot-start="03:00" data-slot-end="03:15" x="269.45" y="373.26" width="9.54" height="86.57"><title>03:00–03:15 | zakup: 0,25 PLN</title></rect><rect class="purchase-bar" data-slot-start="03:15" data-slot-end="03:30" x="279.39" y="373.26" width="9.54" height="21.64"><title>03:15–03:30 | zakup: 0,06 PLN</title></rect><rect class="purchase-bar" data-slot-start="03:45" data-slot-end="04:00" x="299.26" y="373.26" width="9.54" height="64.93"><title>03:45–04:00 | zakup: 0,19 PLN</title></rect><rect class="purchase-bar" data-slot-start="04:00" data-slot-end="04:15" x="309.20" y="373.26" width="9.54" height="64.93"><title>04:00–04:15 | zakup: 0,19 PLN</title></rect><rect class="purchase-bar" data-slot-start="04:15" data-slot-end="04:30" x="319.14" y="373.26" width="9.54" height="21.64"><title>04:15–04:30 | zakup: 0,06 PLN</title></rect><rect class="purchase-bar" data-slot-start="05:00" data-slot-end="05:15" x="348.95" y="373.26" width="9.54" height="21.64"><title>05:00–05:15 | zakup: 0,06 PLN</title></rect><rect class="purchase-bar" data-slot-start="06:30" data-slot-end="06:45" x="408.57" y="373.26" width="9.54" height="21.64"><title>06:30–06:45 | zakup: 0,06 PLN</title></rect><rect class="sale-bar" data-slot-start="12:45" data-slot-end="13:00" x="657.01" y="371.85" width="9.54" height="1.41"><title>12:45–13:00 | sprzedaż: 0,00 PLN</title></rect><rect class="sale-bar" data-slot-start="13:00" data-slot-end="13:15" x="666.95" y="370.89" width="9.54" height="2.37"><title>13:00–13:15 | sprzedaż: 0,01 PLN</title></rect><rect class="purchase-bar" data-slot-start="14:00" data-slot-end="14:15" x="706.70" y="373.26" width="9.54" height="21.64"><title>14:00–14:15 | zakup: 0,06 PLN</title></rect><rect class="purchase-bar" data-slot-start="14:15" data-slot-end="14:30" x="716.64" y="373.26" width="9.54" height="21.64"><title>14:15–14:30 | zakup: 0,06 PLN</title></rect><rect class="sale-bar" data-slot-start="14:45" data-slot-end="15:00" x="736.51" y="372.16" width="9.54" height="1.10"><title>14:45–15:00 | sprzedaż: 0,00 PLN</title></rect><rect class="sale-bar" data-slot-start="15:00" data-slot-end="15:15" x="746.45" y="371.61" width="9.54" height="1.65"><title>15:00–15:15 | sprzedaż: 0,00 PLN</title></rect><rect class="sale-bar" data-slot-start="15:15" data-slot-end="15:30" x="756.39" y="371.30" width="9.54" height="1.96"><title>15:15–15:30 | sprzedaż: 0,01 PLN</title></rect><rect class="sale-bar" data-slot-start="15:45" data-slot-end="16:00" x="776.26" y="362.92" width="9.54" height="10.34"><title>15:45–16:00 | sprzedaż: 0,03 PLN</title></rect><rect class="sale-bar" data-slot-start="16:00" data-slot-end="16:15" x="786.20" y="360.79" width="9.54" height="12.47"><title>16:00–16:15 | sprzedaż: 0,04 PLN</title></rect><rect class="sale-bar" data-slot-start="16:15" data-slot-end="16:30" x="796.14" y="342.62" width="9.54" height="30.64"><title>16:15–16:30 | sprzedaż: 0,09 PLN</title></rect><rect class="sale-bar" data-slot-start="16:30" data-slot-end="16:45" x="806.07" y="356.91" width="9.54" height="16.35"><title>16:30–16:45 | sprzedaż: 0,05 PLN</title></rect><rect class="sale-bar" data-slot-start="16:45" data-slot-end="17:00" x="816.01" y="356.05" width="9.54" height="17.21"><title>16:45–17:00 | sprzedaż: 0,05 PLN</title></rect><rect class="sale-bar" data-slot-start="17:00" data-slot-end="17:15" x="825.95" y="354.85" width="9.54" height="18.41"><title>17:00–17:15 | sprzedaż: 0,05 PLN</title></rect><rect class="sale-bar" data-slot-start="17:15" data-slot-end="17:30" x="835.89" y="353.85" width="9.54" height="19.41"><title>17:15–17:30 | sprzedaż: 0,06 PLN</title></rect><rect class="sale-bar" data-slot-start="17:30" data-slot-end="17:45" x="845.82" y="353.10" width="9.54" height="20.17"><title>17:30–17:45 | sprzedaż: 0,06 PLN</title></rect><rect class="sale-bar" data-slot-start="17:45" data-slot-end="18:00" x="855.76" y="303.08" width="9.54" height="70.18"><title>17:45–18:00 | sprzedaż: 0,20 PLN</title></rect><rect class="sale-bar" data-slot-start="18:00" data-slot-end="18:15" x="865.70" y="293.84" width="9.54" height="79.43"><title>18:00–18:15 | sprzedaż: 0,23 PLN</title></rect><rect class="sale-bar" data-slot-start="18:15" data-slot-end="18:30" x="875.64" y="309.26" width="9.54" height="64.00"><title>18:15–18:30 | sprzedaż: 0,19 PLN</title></rect><rect class="sale-bar" data-slot-start="18:30" data-slot-end="18:45" x="885.57" y="222.18" width="9.54" height="151.09"><title>18:30–18:45 | sprzedaż: 0,44 PLN</title></rect><rect class="sale-bar" data-slot-start="18:45" data-slot-end="19:00" x="895.51" y="243.92" width="9.54" height="129.34"><title>18:45–19:00 | sprzedaż: 0,38 PLN</title></rect><rect class="sale-bar" data-slot-start="19:00" data-slot-end="19:15" x="905.45" y="257.84" width="9.54" height="115.43"><title>19:00–19:15 | sprzedaż: 0,34 PLN</title></rect><rect class="sale-bar" data-slot-start="19:15" data-slot-end="19:30" x="915.39" y="274.32" width="9.54" height="98.94"><title>19:15–19:30 | sprzedaż: 0,29 PLN</title></rect><path class="price-line" d="M 150.00 78.17 H 159.94 V 93.28 H 169.88 V 110.12 H 179.81 V 118.02 H 189.75 V 104.62 H 199.69 V 108.74 H 209.62 V 115.61 H 219.56 V 121.45 H 229.50 V 115.61 H 239.44 V 120.42 H 249.38 V 121.45 H 259.31 V 125.57 H 269.25 V 124.89 H 279.19 V 120.08 H 289.12 V 123.51 H 299.06 V 120.08 H 309.00 V 122.14 H 318.94 V 120.42 H 328.88 V 123.17 H 338.81 V 124.54 H 348.75 V 121.11 H 358.69 V 125.23 H 368.62 V 125.92 H 378.56 V 127.29 H 388.50 V 119.05 H 398.44 V 125.23 H 408.38 V 134.85 H 418.31 V 149.28 H 428.25 V 130.04 H 438.19 V 145.84 H 448.12 V 156.49 H 458.06 V 176.07 H 468.00 V 126.95 H 477.94 V 159.58 H 487.88 V 185.35 H 497.81 V 191.53 H 507.75 V 179.17 H 517.69 V 198.75 H 527.62 V 228.29 H 537.56 V 288.75 H 547.50 V 256.80 H 557.44 V 327.23 H 567.38 V 348.18 H 577.31 V 352.99 H 587.25 V 342.69 H 597.19 V 308.68 H 607.12 V 327.92 H 617.06 V 346.81 H 627.00 V 334.10 H 636.94 V 349.90 H 646.88 V 356.43 H 656.81 V 359.18 H 666.75 V 349.56 H 676.69 V 362.27 H 686.62 V 364.67 H 696.56 V 370.17 H 706.50 H 716.44 H 726.38 V 358.83 H 736.31 V 362.27 H 746.25 V 356.77 H 756.19 V 353.68 H 766.12 V 296.31 H 776.06 V 269.86 H 786.00 V 248.56 H 795.94 V 220.05 H 805.88 V 209.74 H 815.81 V 201.15 H 825.75 V 189.13 H 835.69 V 179.17 H 845.62 V 171.61 H 855.56 V 139.32 H 865.50 V 174.70 H 875.44 V 159.93 H 885.38 V 121.45 H 895.31 V 114.58 H 905.25 V 142.41 H 915.19 V 125.92 H 925.12 V 104.62 H 935.06 V 86.41 H 945.00 V 113.89 H 954.94 V 106.34 H 964.88 V 92.60 H 974.81 V 84.35 H 984.75 V 90.88 H 994.69 V 99.47 H 1004.62 H 1014.56 V 105.65 H 1024.50 V 87.10 H 1034.44 V 99.12 H 1044.38 V 106.68 H 1054.31 V 123.51 H 1064.25 V 101.53 H 1074.19 V 114.24 H 1084.12 V 120.08 H 1094.06 V 129.01 H 1104.00" fill="none" stroke="#2563eb" stroke-width="2.8" stroke-linejoin="miter" stroke-linecap="butt"><title>Cena sprzedaży — linia schodkowa, jednostka: PLN/kWh</title></path><path class="soc-line" d="M 150.00 332.39 H 159.94 H 169.88 V 335.53 H 179.81 H 189.75 H 199.69 V 338.68 H 209.62" fill="none" stroke="#f97316" stroke-width="3.0" stroke-linejoin="miter" stroke-linecap="butt"><title>SOC baterii — linia schodkowa, jednostka: %</title></path><path class="soc-line" d="M 219.56 338.68 H 229.50 V 341.82 H 239.44 H 249.38 H 259.31 H 269.25 H 279.19 H 289.12 H 299.06 H 309.00 H 318.94 H 328.88 H 338.81 H 348.75 H 358.69 H 368.62 H 378.56 H 388.50 H 398.44 V 344.97 H 408.38 V 341.82 H 418.31 H 428.25 V 338.68 H 438.19 V 335.53 H 448.12 V 332.39 H 458.06 V 329.25 H 468.00 V 322.96 H 477.94 V 319.81 H 487.88 V 322.96 H 497.81 H 507.75 V 319.81 H 517.69 V 313.53 H 527.62 V 307.24 H 537.56 V 304.09 H 547.50 V 297.81 H 557.44 V 288.38 H 567.38 V 275.80 H 577.31 V 263.22 H 587.25 V 250.65 H 597.19 V 238.07 H 607.12 V 222.35 H 617.06 V 200.34 H 627.00 V 184.62 H 636.94 V 168.90 H 646.88 V 146.90 H 656.81 V 128.03 H 666.75 V 109.17 H 676.69 V 96.59 H 686.62 V 84.02 H 696.56 V 77.73 H 706.50 V 96.59 H 716.44 V 115.46 H 726.38 V 121.74 H 736.31 V 137.46 H 746.25 H 756.19 V 124.89 H 766.12 V 109.17 H 776.06 V 96.59 H 786.00 V 80.87 H 795.94 V 68.30 H 805.88 V 58.86 H 815.81 H 825.75 H 835.69 H 845.62 H 855.56 H 865.50 H 875.44 H 885.38 H 895.31 H 905.25 H 915.19 H 925.12 H 935.06 H 945.00 H 954.94 H 964.88 H 974.81" fill="none" stroke="#f97316" stroke-width="3.0" stroke-linejoin="miter" stroke-linecap="butt"><title>SOC baterii — linia schodkowa, jednostka: %</title></path><rect x="150.00" y="40.0" width="9.94" height="458.0" fill="transparent" pointer-events="all"><title>00:00–00:15 | cena sprzedaży: 0,86 PLN/kWh | SOC: 13% | Sprzedaż: 0,00 PLN | Zakup: 0,00 PLN</title></rect><rect x="159.94" y="40.0" width="9.94" height="458.0" fill="transparent" pointer-events="all"><title>00:15–00:30 | cena sprzedaży: 0,81 PLN/kWh | SOC: 13% | Sprzedaż: 0,00 PLN | Zakup: 0,00 PLN</title></rect><rect x="169.88" y="40.0" width="9.94" height="458.0" fill="transparent" pointer-events="all"><title>00:30–00:45 | cena sprzedaży: 0,77 PLN/kWh | SOC: 12% | Sprzedaż: 0,00 PLN | Zakup: 0,00 PLN</title></rect><rect x="179.81" y="40.0" width="9.94" height="458.0" fill="transparent" pointer-events="all"><title>00:45–01:00 | cena sprzedaży: 0,74 PLN/kWh | SOC: 12% | Sprzedaż: 0,00 PLN | Zakup: 0,00 PLN</title></rect><rect x="189.75" y="40.0" width="9.94" height="458.0" fill="transparent" pointer-events="all"><title>01:00–01:15 | cena sprzedaży: 0,78 PLN/kWh | SOC: 12% | Sprzedaż: 0,00 PLN | Zakup: 0,00 PLN</title></rect><rect x="199.69" y="40.0" width="9.94" height="458.0" fill="transparent" pointer-events="all"><title>01:15–01:30 | cena sprzedaży: 0,77 PLN/kWh | SOC: 11% | Sprzedaż: 0,00 PLN | Zakup: 0,00 PLN</title></rect><rect x="209.62" y="40.0" width="9.94" height="458.0" fill="transparent" pointer-events="all"><title>01:30–01:45 | cena sprzedaży: 0,75 PLN/kWh | SOC: —% | Sprzedaż: — PLN | Zakup: 0,00 PLN</title></rect><rect x="219.56" y="40.0" width="9.94" height="458.0" fill="transparent" pointer-events="all"><title>01:45–02:00 | cena sprzedaży: 0,73 PLN/kWh | SOC: 11% | Sprzedaż: 0,00 PLN | Zakup: 0,00 PLN</title></rect><rect x="229.50" y="40.0" width="9.94" height="458.0" fill="transparent" pointer-events="all"><title>02:00–02:15 | cena sprzedaży: 0,75 PLN/kWh | SOC: 10% | Sprzedaż: 0,00 PLN | Zakup: 0,06 PLN</title></rect><rect x="239.44" y="40.0" width="9.94" height="458.0" fill="transparent" pointer-events="all"><title>02:15–02:30 | cena sprzedaży: 0,74 PLN/kWh | SOC: 10% | Sprzedaż: 0,00 PLN | Zakup: 0,00 PLN</title></rect><rect x="249.38" y="40.0" width="9.94" height="458.0" fill="transparent" pointer-events="all"><title>02:30–02:45 | cena sprzedaży: 0,73 PLN/kWh | SOC: 10% | Sprzedaż: 0,00 PLN | Zakup: 0,06 PLN</title></rect><rect x="259.31" y="40.0" width="9.94" height="458.0" fill="transparent" pointer-events="all"><title>02:45–03:00 | cena sprzedaży: 0,72 PLN/kWh | SOC: 10% | Sprzedaż: 0,00 PLN | Zakup: 0,06 PLN</title></rect><rect x="269.25" y="40.0" width="9.94" height="458.0" fill="transparent" pointer-events="all"><title>03:00–03:15 | cena sprzedaży: 0,72 PLN/kWh | SOC: 10% | Sprzedaż: 0,00 PLN | Zakup: 0,25 PLN</title></rect><rect x="279.19" y="40.0" width="9.94" height="458.0" fill="transparent" pointer-events="all"><title>03:15–03:30 | cena sprzedaży: 0,74 PLN/kWh | SOC: 10% | Sprzedaż: 0,00 PLN | Zakup: 0,06 PLN</title></rect><rect x="289.12" y="40.0" width="9.94" height="458.0" fill="transparent" pointer-events="all"><title>03:30–03:45 | cena sprzedaży: 0,73 PLN/kWh | SOC: 10% | Sprzedaż: 0,00 PLN | Zakup: 0,00 PLN</title></rect><rect x="299.06" y="40.0" width="9.94" height="458.0" fill="transparent" pointer-events="all"><title>03:45–04:00 | cena sprzedaży: 0,74 PLN/kWh | SOC: 10% | Sprzedaż: 0,00 PLN | Zakup: 0,19 PLN</title></rect><rect x="309.00" y="40.0" width="9.94" height="458.0" fill="transparent" pointer-events="all"><title>04:00–04:15 | cena sprzedaży: 0,73 PLN/kWh | SOC: 10% | Sprzedaż: 0,00 PLN | Zakup: 0,19 PLN</title></rect><rect x="318.94" y="40.0" width="9.94" height="458.0" fill="transparent" pointer-events="all"><title>04:15–04:30 | cena sprzedaży: 0,74 PLN/kWh | SOC: 10% | Sprzedaż: 0,00 PLN | Zakup: 0,06 PLN</title></rect><rect x="328.88" y="40.0" width="9.94" height="458.0" fill="transparent" pointer-events="all"><title>04:30–04:45 | cena sprzedaży: 0,73 PLN/kWh | SOC: 10% | Sprzedaż: 0,00 PLN | Zakup: 0,00 PLN</title></rect><rect x="338.81" y="40.0" width="9.94" height="458.0" fill="transparent" pointer-events="all"><title>04:45–05:00 | cena sprzedaży: 0,72 PLN/kWh | SOC: 10% | Sprzedaż: 0,00 PLN | Zakup: 0,00 PLN</title></rect><rect x="348.75" y="40.0" width="9.94" height="458.0" fill="transparent" pointer-events="all"><title>05:00–05:15 | cena sprzedaży: 0,73 PLN/kWh | SOC: 10% | Sprzedaż: 0,00 PLN | Zakup: 0,06 PLN</title></rect><rect x="358.69" y="40.0" width="9.94" height="458.0" fill="transparent" pointer-events="all"><title>05:15–05:30 | cena sprzedaży: 0,72 PLN/kWh | SOC: 10% | Sprzedaż: 0,00 PLN | Zakup: 0,00 PLN</title></rect><rect x="368.62" y="40.0" width="9.94" height="458.0" fill="transparent" pointer-events="all"><title>05:30–05:45 | cena sprzedaży: 0,72 PLN/kWh | SOC: 10% | Sprzedaż: 0,00 PLN | Zakup: 0,00 PLN</title></rect><rect x="378.56" y="40.0" width="9.94" height="458.0" fill="transparent" pointer-events="all"><title>05:45–06:00 | cena sprzedaży: 0,72 PLN/kWh | SOC: 10% | Sprzedaż: 0,00 PLN | Zakup: 0,00 PLN</title></rect><rect x="388.50" y="40.0" width="9.94" height="458.0" fill="transparent" pointer-events="all"><title>06:00–06:15 | cena sprzedaży: 0,74 PLN/kWh | SOC: 10% | Sprzedaż: 0,00 PLN | Zakup: 0,00 PLN</title></rect><rect x="398.44" y="40.0" width="9.94" height="458.0" fill="transparent" pointer-events="all"><title>06:15–06:30 | cena sprzedaży: 0,72 PLN/kWh | SOC: 9% | Sprzedaż: 0,00 PLN | Zakup: 0,00 PLN</title></rect><rect x="408.38" y="40.0" width="9.94" height="458.0" fill="transparent" pointer-events="all"><title>06:30–06:45 | cena sprzedaży: 0,69 PLN/kWh | SOC: 10% | Sprzedaż: 0,00 PLN | Zakup: 0,06 PLN</title></rect><rect x="418.31" y="40.0" width="9.94" height="458.0" fill="transparent" pointer-events="all"><title>06:45–07:00 | cena sprzedaży: 0,65 PLN/kWh | SOC: 10% | Sprzedaż: 0,00 PLN | Zakup: 0,00 PLN</title></rect><rect x="428.25" y="40.0" width="9.94" height="458.0" fill="transparent" pointer-events="all"><title>07:00–07:15 | cena sprzedaży: 0,71 PLN/kWh | SOC: 11% | Sprzedaż: 0,00 PLN | Zakup: 0,00 PLN</title></rect><rect x="438.19" y="40.0" width="9.94" height="458.0" fill="transparent" pointer-events="all"><title>07:15–07:30 | cena sprzedaży: 0,66 PLN/kWh | SOC: 12% | Sprzedaż: 0,00 PLN | Zakup: 0,00 PLN</title></rect><rect x="448.12" y="40.0" width="9.94" height="458.0" fill="transparent" pointer-events="all"><title>07:30–07:45 | cena sprzedaży: 0,63 PLN/kWh | SOC: 13% | Sprzedaż: 0,00 PLN | Zakup: 0,00 PLN</title></rect><rect x="458.06" y="40.0" width="9.94" height="458.0" fill="transparent" pointer-events="all"><title>07:45–08:00 | cena sprzedaży: 0,57 PLN/kWh | SOC: 14% | Sprzedaż: 0,00 PLN | Zakup: 0,00 PLN</title></rect><rect x="468.00" y="40.0" width="9.94" height="458.0" fill="transparent" pointer-events="all"><title>08:00–08:15 | cena sprzedaży: 0,72 PLN/kWh | SOC: 16% | Sprzedaż: 0,00 PLN | Zakup: 0,00 PLN</title></rect><rect x="477.94" y="40.0" width="9.94" height="458.0" fill="transparent" pointer-events="all"><title>08:15–08:30 | cena sprzedaży: 0,62 PLN/kWh | SOC: 17% | Sprzedaż: 0,00 PLN | Zakup: 0,00 PLN</title></rect><rect x="487.88" y="40.0" width="9.94" height="458.0" fill="transparent" pointer-events="all"><title>08:30–08:45 | cena sprzedaży: 0,55 PLN/kWh | SOC: 16% | Sprzedaż: 0,00 PLN | Zakup: 0,00 PLN</title></rect><rect x="497.81" y="40.0" width="9.94" height="458.0" fill="transparent" pointer-events="all"><title>08:45–09:00 | cena sprzedaży: 0,53 PLN/kWh | SOC: 16% | Sprzedaż: 0,00 PLN | Zakup: 0,00 PLN</title></rect><rect x="507.75" y="40.0" width="9.94" height="458.0" fill="transparent" pointer-events="all"><title>09:00–09:15 | cena sprzedaży: 0,56 PLN/kWh | SOC: 17% | Sprzedaż: 0,00 PLN | Zakup: 0,00 PLN</title></rect><rect x="517.69" y="40.0" width="9.94" height="458.0" fill="transparent" pointer-events="all"><title>09:15–09:30 | cena sprzedaży: 0,51 PLN/kWh | SOC: 19% | Sprzedaż: 0,00 PLN | Zakup: 0,00 PLN</title></rect><rect x="527.62" y="40.0" width="9.94" height="458.0" fill="transparent" pointer-events="all"><title>09:30–09:45 | cena sprzedaży: 0,42 PLN/kWh | SOC: 21% | Sprzedaż: 0,00 PLN | Zakup: 0,00 PLN</title></rect><rect x="537.56" y="40.0" width="9.94" height="458.0" fill="transparent" pointer-events="all"><title>09:45–10:00 | cena sprzedaży: 0,25 PLN/kWh | SOC: 22% | Sprzedaż: 0,00 PLN | Zakup: 0,00 PLN</title></rect><rect x="547.50" y="40.0" width="9.94" height="458.0" fill="transparent" pointer-events="all"><title>10:00–10:15 | cena sprzedaży: 0,34 PLN/kWh | SOC: 24% | Sprzedaż: 0,00 PLN | Zakup: 0,00 PLN</title></rect><rect x="557.44" y="40.0" width="9.94" height="458.0" fill="transparent" pointer-events="all"><title>10:15–10:30 | cena sprzedaży: 0,13 PLN/kWh | SOC: 27% | Sprzedaż: 0,00 PLN | Zakup: 0,00 PLN</title></rect><rect x="567.38" y="40.0" width="9.94" height="458.0" fill="transparent" pointer-events="all"><title>10:30–10:45 | cena sprzedaży: 0,07 PLN/kWh | SOC: 31% | Sprzedaż: 0,00 PLN | Zakup: 0,00 PLN</title></rect><rect x="577.31" y="40.0" width="9.94" height="458.0" fill="transparent" pointer-events="all"><title>10:45–11:00 | cena sprzedaży: 0,06 PLN/kWh | SOC: 35% | Sprzedaż: 0,00 PLN | Zakup: 0,00 PLN</title></rect><rect x="587.25" y="40.0" width="9.94" height="458.0" fill="transparent" pointer-events="all"><title>11:00–11:15 | cena sprzedaży: 0,09 PLN/kWh | SOC: 39% | Sprzedaż: 0,00 PLN | Zakup: 0,00 PLN</title></rect><rect x="597.19" y="40.0" width="9.94" height="458.0" fill="transparent" pointer-events="all"><title>11:15–11:30 | cena sprzedaży: 0,19 PLN/kWh | SOC: 43% | Sprzedaż: 0,00 PLN | Zakup: 0,00 PLN</title></rect><rect x="607.12" y="40.0" width="9.94" height="458.0" fill="transparent" pointer-events="all"><title>11:30–11:45 | cena sprzedaży: 0,13 PLN/kWh | SOC: 48% | Sprzedaż: 0,00 PLN | Zakup: 0,00 PLN</title></rect><rect x="617.06" y="40.0" width="9.94" height="458.0" fill="transparent" pointer-events="all"><title>11:45–12:00 | cena sprzedaży: 0,08 PLN/kWh | SOC: 55% | Sprzedaż: 0,00 PLN | Zakup: 0,00 PLN</title></rect><rect x="627.00" y="40.0" width="9.94" height="458.0" fill="transparent" pointer-events="all"><title>12:00–12:15 | cena sprzedaży: 0,11 PLN/kWh | SOC: 60% | Sprzedaż: 0,00 PLN | Zakup: 0,00 PLN</title></rect><rect x="636.94" y="40.0" width="9.94" height="458.0" fill="transparent" pointer-events="all"><title>12:15–12:30 | cena sprzedaży: 0,07 PLN/kWh | SOC: 65% | Sprzedaż: 0,00 PLN | Zakup: 0,00 PLN</title></rect><rect x="646.88" y="40.0" width="9.94" height="458.0" fill="transparent" pointer-events="all"><title>12:30–12:45 | cena sprzedaży: 0,05 PLN/kWh | SOC: 72% | Sprzedaż: 0,00 PLN | Zakup: 0,00 PLN</title></rect><rect x="656.81" y="40.0" width="9.94" height="458.0" fill="transparent" pointer-events="all"><title>12:45–13:00 | cena sprzedaży: 0,04 PLN/kWh | SOC: 78% | Sprzedaż: 0,00 PLN | Zakup: 0,00 PLN</title></rect><rect x="666.75" y="40.0" width="9.94" height="458.0" fill="transparent" pointer-events="all"><title>13:00–13:15 | cena sprzedaży: 0,07 PLN/kWh | SOC: 84% | Sprzedaż: 0,01 PLN | Zakup: 0,00 PLN</title></rect><rect x="676.69" y="40.0" width="9.94" height="458.0" fill="transparent" pointer-events="all"><title>13:15–13:30 | cena sprzedaży: 0,03 PLN/kWh | SOC: 88% | Sprzedaż: 0,00 PLN | Zakup: 0,00 PLN</title></rect><rect x="686.62" y="40.0" width="9.94" height="458.0" fill="transparent" pointer-events="all"><title>13:30–13:45 | cena sprzedaży: 0,03 PLN/kWh | SOC: 92% | Sprzedaż: 0,00 PLN | Zakup: 0,00 PLN</title></rect><rect x="696.56" y="40.0" width="9.94" height="458.0" fill="transparent" pointer-events="all"><title>13:45–14:00 | cena sprzedaży: 0,01 PLN/kWh | SOC: 94% | Sprzedaż: 0,00 PLN | Zakup: 0,00 PLN</title></rect><rect x="706.50" y="40.0" width="9.94" height="458.0" fill="transparent" pointer-events="all"><title>14:00–14:15 | cena sprzedaży: 0,01 PLN/kWh | SOC: 88% | Sprzedaż: 0,00 PLN | Zakup: 0,06 PLN</title></rect><rect x="716.44" y="40.0" width="9.94" height="458.0" fill="transparent" pointer-events="all"><title>14:15–14:30 | cena sprzedaży: 0,01 PLN/kWh | SOC: 82% | Sprzedaż: 0,00 PLN | Zakup: 0,06 PLN</title></rect><rect x="726.38" y="40.0" width="9.94" height="458.0" fill="transparent" pointer-events="all"><title>14:30–14:45 | cena sprzedaży: 0,04 PLN/kWh | SOC: 80% | Sprzedaż: 0,00 PLN | Zakup: 0,00 PLN</title></rect><rect x="736.31" y="40.0" width="9.94" height="458.0" fill="transparent" pointer-events="all"><title>14:45–15:00 | cena sprzedaży: 0,03 PLN/kWh | SOC: 75% | Sprzedaż: 0,00 PLN | Zakup: 0,00 PLN</title></rect><rect x="746.25" y="40.0" width="9.94" height="458.0" fill="transparent" pointer-events="all"><title>15:00–15:15 | cena sprzedaży: 0,05 PLN/kWh | SOC: 75% | Sprzedaż: 0,00 PLN | Zakup: 0,00 PLN</title></rect><rect x="756.19" y="40.0" width="9.94" height="458.0" fill="transparent" pointer-events="all"><title>15:15–15:30 | cena sprzedaży: 0,06 PLN/kWh | SOC: 79% | Sprzedaż: 0,01 PLN | Zakup: 0,00 PLN</title></rect><rect x="766.12" y="40.0" width="9.94" height="458.0" fill="transparent" pointer-events="all"><title>15:30–15:45 | cena sprzedaży: 0,22 PLN/kWh | SOC: 84% | Sprzedaż: 0,00 PLN | Zakup: 0,00 PLN</title></rect><rect x="776.06" y="40.0" width="9.94" height="458.0" fill="transparent" pointer-events="all"><title>15:45–16:00 | cena sprzedaży: 0,30 PLN/kWh | SOC: 88% | Sprzedaż: 0,03 PLN | Zakup: 0,00 PLN</title></rect><rect x="786.00" y="40.0" width="9.94" height="458.0" fill="transparent" pointer-events="all"><title>16:00–16:15 | cena sprzedaży: 0,36 PLN/kWh | SOC: 93% | Sprzedaż: 0,04 PLN | Zakup: 0,00 PLN</title></rect><rect x="795.94" y="40.0" width="9.94" height="458.0" fill="transparent" pointer-events="all"><title>16:15–16:30 | cena sprzedaży: 0,45 PLN/kWh | SOC: 97% | Sprzedaż: 0,09 PLN | Zakup: 0,00 PLN</title></rect><rect x="805.88" y="40.0" width="9.94" height="458.0" fill="transparent" pointer-events="all"><title>16:30–16:45 | cena sprzedaży: 0,48 PLN/kWh | SOC: 100% | Sprzedaż: 0,05 PLN | Zakup: 0,00 PLN</title></rect><rect x="815.81" y="40.0" width="9.94" height="458.0" fill="transparent" pointer-events="all"><title>16:45–17:00 | cena sprzedaży: 0,50 PLN/kWh | SOC: 100% | Sprzedaż: 0,05 PLN | Zakup: 0,00 PLN</title></rect><rect x="825.75" y="40.0" width="9.94" height="458.0" fill="transparent" pointer-events="all"><title>17:00–17:15 | cena sprzedaży: 0,54 PLN/kWh | SOC: 100% | Sprzedaż: 0,05 PLN | Zakup: 0,00 PLN</title></rect><rect x="835.69" y="40.0" width="9.94" height="458.0" fill="transparent" pointer-events="all"><title>17:15–17:30 | cena sprzedaży: 0,56 PLN/kWh | SOC: 100% | Sprzedaż: 0,06 PLN | Zakup: 0,00 PLN</title></rect><rect x="845.62" y="40.0" width="9.94" height="458.0" fill="transparent" pointer-events="all"><title>17:30–17:45 | cena sprzedaży: 0,59 PLN/kWh | SOC: 100% | Sprzedaż: 0,06 PLN | Zakup: 0,00 PLN</title></rect><rect x="855.56" y="40.0" width="9.94" height="458.0" fill="transparent" pointer-events="all"><title>17:45–18:00 | cena sprzedaży: 0,68 PLN/kWh | SOC: 100% | Sprzedaż: 0,20 PLN | Zakup: 0,00 PLN</title></rect><rect x="865.50" y="40.0" width="9.94" height="458.0" fill="transparent" pointer-events="all"><title>18:00–18:15 | cena sprzedaży: 0,58 PLN/kWh | SOC: 100% | Sprzedaż: 0,23 PLN | Zakup: 0,00 PLN</title></rect><rect x="875.44" y="40.0" width="9.94" height="458.0" fill="transparent" pointer-events="all"><title>18:15–18:30 | cena sprzedaży: 0,62 PLN/kWh | SOC: 100% | Sprzedaż: 0,19 PLN | Zakup: 0,00 PLN</title></rect><rect x="885.38" y="40.0" width="9.94" height="458.0" fill="transparent" pointer-events="all"><title>18:30–18:45 | cena sprzedaży: 0,73 PLN/kWh | SOC: 100% | Sprzedaż: 0,44 PLN | Zakup: 0,00 PLN</title></rect><rect x="895.31" y="40.0" width="9.94" height="458.0" fill="transparent" pointer-events="all"><title>18:45–19:00 | cena sprzedaży: 0,75 PLN/kWh | SOC: 100% | Sprzedaż: 0,38 PLN | Zakup: 0,00 PLN</title></rect><rect x="905.25" y="40.0" width="9.94" height="458.0" fill="transparent" pointer-events="all"><title>19:00–19:15 | cena sprzedaży: 0,67 PLN/kWh | SOC: 100% | Sprzedaż: 0,34 PLN | Zakup: 0,00 PLN</title></rect><rect x="915.19" y="40.0" width="9.94" height="458.0" fill="transparent" pointer-events="all"><title>19:15–19:30 | cena sprzedaży: 0,72 PLN/kWh | SOC: 100% | Sprzedaż: 0,29 PLN | Zakup: 0,00 PLN</title></rect><rect x="925.12" y="40.0" width="9.94" height="458.0" fill="transparent" pointer-events="all"><title>19:30–19:45 | cena sprzedaży: 0,78 PLN/kWh | SOC: 100% | Sprzedaż: 0,00 PLN | Zakup: 0,00 PLN</title></rect><rect x="935.06" y="40.0" width="9.94" height="458.0" fill="transparent" pointer-events="all"><title>19:45–20:00 | cena sprzedaży: 0,83 PLN/kWh | SOC: 100% | Sprzedaż: 0,00 PLN | Zakup: 0,00 PLN</title></rect><rect x="945.00" y="40.0" width="9.94" height="458.0" fill="transparent" pointer-events="all"><title>20:00–20:15 | cena sprzedaży: 0,76 PLN/kWh | SOC: 100% | Sprzedaż: 0,00 PLN | Zakup: 0,00 PLN</title></rect><rect x="954.94" y="40.0" width="9.94" height="458.0" fill="transparent" pointer-events="all"><title>20:15–20:30 | cena sprzedaży: 0,78 PLN/kWh | SOC: 100% | Sprzedaż: 0,00 PLN | Zakup: 0,00 PLN</title></rect><rect x="964.88" y="40.0" width="9.94" height="458.0" fill="transparent" pointer-events="all"><title>20:30–20:45 | cena sprzedaży: 0,82 PLN/kWh | SOC: 100% | Sprzedaż: — PLN | Zakup: — PLN</title></rect><rect x="974.81" y="40.0" width="9.94" height="458.0" fill="transparent" pointer-events="all"><title>20:45–21:00 | cena sprzedaży: 0,84 PLN/kWh | SOC: —% | Sprzedaż: — PLN | Zakup: — PLN</title></rect><rect x="984.75" y="40.0" width="9.94" height="458.0" fill="transparent" pointer-events="all"><title>21:00–21:15 | cena sprzedaży: 0,82 PLN/kWh | SOC: —% | Sprzedaż: — PLN | Zakup: — PLN</title></rect><rect x="994.69" y="40.0" width="9.94" height="458.0" fill="transparent" pointer-events="all"><title>21:15–21:30 | cena sprzedaży: 0,80 PLN/kWh | SOC: —% | Sprzedaż: — PLN | Zakup: — PLN</title></rect><rect x="1004.62" y="40.0" width="9.94" height="458.0" fill="transparent" pointer-events="all"><title>21:30–21:45 | cena sprzedaży: 0,80 PLN/kWh | SOC: —% | Sprzedaż: — PLN | Zakup: — PLN</title></rect><rect x="1014.56" y="40.0" width="9.94" height="458.0" fill="transparent" pointer-events="all"><title>21:45–22:00 | cena sprzedaży: 0,78 PLN/kWh | SOC: —% | Sprzedaż: — PLN | Zakup: — PLN</title></rect><rect x="1024.50" y="40.0" width="9.94" height="458.0" fill="transparent" pointer-events="all"><title>22:00–22:15 | cena sprzedaży: 0,83 PLN/kWh | SOC: —% | Sprzedaż: — PLN | Zakup: — PLN</title></rect><rect x="1034.44" y="40.0" width="9.94" height="458.0" fill="transparent" pointer-events="all"><title>22:15–22:30 | cena sprzedaży: 0,80 PLN/kWh | SOC: —% | Sprzedaż: — PLN | Zakup: — PLN</title></rect><rect x="1044.38" y="40.0" width="9.94" height="458.0" fill="transparent" pointer-events="all"><title>22:30–22:45 | cena sprzedaży: 0,78 PLN/kWh | SOC: —% | Sprzedaż: — PLN | Zakup: — PLN</title></rect><rect x="1054.31" y="40.0" width="9.94" height="458.0" fill="transparent" pointer-events="all"><title>22:45–23:00 | cena sprzedaży: 0,73 PLN/kWh | SOC: —% | Sprzedaż: — PLN | Zakup: — PLN</title></rect><rect x="1064.25" y="40.0" width="9.94" height="458.0" fill="transparent" pointer-events="all"><title>23:00–23:15 | cena sprzedaży: 0,79 PLN/kWh | SOC: —% | Sprzedaż: — PLN | Zakup: — PLN</title></rect><rect x="1074.19" y="40.0" width="9.94" height="458.0" fill="transparent" pointer-events="all"><title>23:15–23:30 | cena sprzedaży: 0,75 PLN/kWh | SOC: —% | Sprzedaż: — PLN | Zakup: — PLN</title></rect><rect x="1084.12" y="40.0" width="9.94" height="458.0" fill="transparent" pointer-events="all"><title>23:30–23:45 | cena sprzedaży: 0,74 PLN/kWh | SOC: —% | Sprzedaż: — PLN | Zakup: — PLN</title></rect><rect x="1094.06" y="40.0" width="9.94" height="458.0" fill="transparent" pointer-events="all"><title>23:45–00:00 | cena sprzedaży: 0,71 PLN/kWh | SOC: —% | Sprzedaż: — PLN | Zakup: — PLN</title></rect></svg>