<svg xmlns="http://www.w3.org/2000/svg" viewBox="0 0 1200 746" role="img">
<rect width="100%" height="100%" fill="#ffffff"/>
<text x="86" y="34" font-size="28" font-weight="800" fill="#111827">Prognoza PV z rana oraz produkcja rzeczywista</text>
<text x="86" y="60" font-size="14" fill="#475569">Data: 2026-07-12 | prognoza poranna: 05:00 | wygenerowano: 2026-07-12 18:49</text>
<line x1="86.00" y1="84" x2="86.00" y2="660" stroke="#dbeafe" stroke-width="1.2"/>
<text x="86.00" y="690" text-anchor="middle" font-size="16" fill="#64748b">00:00</text>
<line x1="128.75" y1="84" x2="128.75" y2="660" stroke="#eef2ff" stroke-width="0.7"/>
<line x1="171.50" y1="84" x2="171.50" y2="660" stroke="#eef2ff" stroke-width="0.7"/>
<text x="171.50" y="690" text-anchor="middle" font-size="16" fill="#64748b">02:00</text>
<line x1="214.25" y1="84" x2="214.25" y2="660" stroke="#dbeafe" stroke-width="1.2"/>
<line x1="257.00" y1="84" x2="257.00" y2="660" stroke="#eef2ff" stroke-width="0.7"/>
<text x="257.00" y="690" text-anchor="middle" font-size="16" fill="#64748b">04:00</text>
<line x1="299.75" y1="84" x2="299.75" y2="660" stroke="#eef2ff" stroke-width="0.7"/>
<line x1="342.50" y1="84" x2="342.50" y2="660" stroke="#dbeafe" stroke-width="1.2"/>
<text x="342.50" y="690" text-anchor="middle" font-size="16" fill="#64748b">06:00</text>
<line x1="385.25" y1="84" x2="385.25" y2="660" stroke="#eef2ff" stroke-width="0.7"/>
<line x1="428.00" y1="84" x2="428.00" y2="660" stroke="#eef2ff" stroke-width="0.7"/>
<text x="428.00" y="690" text-anchor="middle" font-size="16" fill="#64748b">08:00</text>
<line x1="470.75" y1="84" x2="470.75" y2="660" stroke="#dbeafe" stroke-width="1.2"/>
<line x1="513.50" y1="84" x2="513.50" y2="660" stroke="#eef2ff" stroke-width="0.7"/>
<text x="513.50" y="690" text-anchor="middle" font-size="16" fill="#64748b">10:00</text>
<line x1="556.25" y1="84" x2="556.25" y2="660" stroke="#eef2ff" stroke-width="0.7"/>
<line x1="599.00" y1="84" x2="599.00" y2="660" stroke="#dbeafe" stroke-width="1.2"/>
<text x="599.00" y="690" text-anchor="middle" font-size="16" fill="#64748b">12:00</text>
<line x1="641.75" y1="84" x2="641.75" y2="660" stroke="#eef2ff" stroke-width="0.7"/>
<line x1="684.50" y1="84" x2="684.50" y2="660" stroke="#eef2ff" stroke-width="0.7"/>
<text x="684.50" y="690" text-anchor="middle" font-size="16" fill="#64748b">14:00</text>
<line x1="727.25" y1="84" x2="727.25" y2="660" stroke="#dbeafe" stroke-width="1.2"/>
<line x1="770.00" y1="84" x2="770.00" y2="660" stroke="#eef2ff" stroke-width="0.7"/>
<text x="770.00" y="690" text-anchor="middle" font-size="16" fill="#64748b">16:00</text>
<line x1="812.75" y1="84" x2="812.75" y2="660" stroke="#eef2ff" stroke-width="0.7"/>
<line x1="855.50" y1="84" x2="855.50" y2="660" stroke="#dbeafe" stroke-width="1.2"/>
<text x="855.50" y="690" text-anchor="middle" font-size="16" fill="#64748b">18:00</text>
<line x1="898.25" y1="84" x2="898.25" y2="660" stroke="#eef2ff" stroke-width="0.7"/>
<line x1="941.00" y1="84" x2="941.00" y2="660" stroke="#eef2ff" stroke-width="0.7"/>
<text x="941.00" y="690" text-anchor="middle" font-size="16" fill="#64748b">20:00</text>
<line x1="983.75" y1="84" x2="983.75" y2="660" stroke="#dbeafe" stroke-width="1.2"/>
<line x1="1026.50" y1="84" x2="1026.50" y2="660" stroke="#eef2ff" stroke-width="0.7"/>
<text x="1026.50" y="690" text-anchor="middle" font-size="16" fill="#64748b">22:00</text>
<line x1="1069.25" y1="84" x2="1069.25" y2="660" stroke="#eef2ff" stroke-width="0.7"/>
<line x1="1112.00" y1="84" x2="1112.00" y2="660" stroke="#dbeafe" stroke-width="1.2"/>
<text x="1112.00" y="690" text-anchor="middle" font-size="16" fill="#64748b">24:00</text>
<line x1="86" y1="660.00" x2="1112" y2="660.00" stroke="#e5e7eb" stroke-width="1"/>
<text x="74" y="665.00" text-anchor="end" font-size="15" fill="#64748b">0,00</text>
<line x1="86" y1="544.80" x2="1112" y2="544.80" stroke="#e5e7eb" stroke-width="1"/>
<text x="74" y="549.80" text-anchor="end" font-size="15" fill="#64748b">0,14</text>
<line x1="86" y1="429.60" x2="1112" y2="429.60" stroke="#e5e7eb" stroke-width="1"/>
<text x="74" y="434.60" text-anchor="end" font-size="15" fill="#64748b">0,28</text>
<line x1="86" y1="314.40" x2="1112" y2="314.40" stroke="#e5e7eb" stroke-width="1"/>
<text x="74" y="319.40" text-anchor="end" font-size="15" fill="#64748b">0,42</text>
<line x1="86" y1="199.20" x2="1112" y2="199.20" stroke="#e5e7eb" stroke-width="1"/>
<text x="74" y="204.20" text-anchor="end" font-size="15" fill="#64748b">0,56</text>
<line x1="86" y1="84.00" x2="1112" y2="84.00" stroke="#e5e7eb" stroke-width="1"/>
<text x="74" y="89.00" text-anchor="end" font-size="15" fill="#64748b">0,70</text>
<text x="1124" y="665.00" font-size="15" fill="#2563eb" opacity="0.75">0,00</text>
<text x="1124" y="549.80" font-size="15" fill="#2563eb" opacity="0.75">0,20</text>
<text x="1124" y="434.60" font-size="15" fill="#2563eb" opacity="0.75">0,40</text>
<text x="1124" y="319.40" font-size="15" fill="#2563eb" opacity="0.75">0,60</text>
<text x="1124" y="204.20" font-size="15" fill="#2563eb" opacity="0.75">0,80</text>
<text x="1124" y="89.00" font-size="15" fill="#2563eb" opacity="0.75">1,00</text>
<rect x="86" y="84" width="1026" height="576" fill="none" stroke="#94a3b8" stroke-width="1.4"/>
<text x="28" y="372.00" transform="rotate(-90 28 372.00)" text-anchor="middle" font-size="17" font-weight="700" fill="#334155">kWh / slot</text>
<text x="1170" y="372.00" transform="rotate(90 1170 372.00)" text-anchor="middle" font-size="17" font-weight="700" fill="#2563eb">PLN/kWh</text>
<polyline points="86.00,249.31 96.69,249.31 96.69,249.31 96.69,248.16 107.38,248.16 107.38,248.16 107.38,231.46 118.06,231.46 118.06,231.46 118.06,254.50 128.75,254.50 128.75,254.50 128.75,237.79 139.44,237.79 139.44,237.79 139.44,255.65 150.12,255.65 150.12,255.65 150.12,263.71 160.81,263.71 160.81,263.71 160.81,278.11 171.50,278.11 171.50,278.11 171.50,260.26 182.19,260.26 182.19,260.26 182.19,276.96 192.88,276.96 192.88,276.96 192.88,280.42 203.56,280.42 203.56,280.42 203.56,283.87 214.25,283.87 214.25,283.87 214.25,272.35 224.94,272.35 224.94,272.35 224.94,278.11 235.62,278.11 235.62,278.11 235.62,290.78 246.31,290.78 246.31,290.78 246.31,292.51 257.00,292.51 257.00,292.51 257.00,283.87 267.69,283.87 267.69,283.87 267.69,288.48 278.38,288.48 278.38,288.48 278.38,294.24 289.06,294.24 289.06,294.24 289.06,295.39 299.75,295.39 299.75,295.39 299.75,290.78 310.44,290.78 310.44,290.78 310.44,297.12 321.12,297.12 321.12,297.12 321.12,300.58 331.81,300.58 331.81,300.58 331.81,313.82 342.50,313.82 342.50,313.82 342.50,308.06 353.19,308.06 353.19,308.06 353.19,320.74 363.88,320.74 363.88,320.74 363.88,325.34 374.56,325.34 374.56,325.34 374.56,329.38 385.25,329.38 385.25,329.38 385.25,320.74 395.94,320.74 395.94,320.74 395.94,328.22 406.62,328.22 406.62,328.22 406.62,330.53 417.31,330.53 417.31,330.53 417.31,332.26 428.00,332.26 428.00,332.26 428.00,333.41 438.69,333.41 438.69,333.41 438.69,333.98 449.38,333.98 449.38,333.98 449.38,348.38 460.06,348.38 460.06,348.38 460.06,354.72 470.75,354.72 470.75,354.72 470.75,369.70 481.44,369.70 481.44,369.70 481.44,374.30 492.12,374.30 492.12,374.30 492.12,376.03 502.81,376.03 502.81,376.03 502.81,444.58 513.50,444.58 513.50,444.58 513.50,509.66 524.19,509.66 524.19,509.66 524.19,525.22 534.88,525.22 534.88,525.22 534.88,542.50 545.56,542.50 545.56,542.50 545.56,551.14 556.25,551.14 556.25,551.14 556.25,585.70 566.94,585.70 566.94,585.70 566.94,514.85 577.62,514.85 577.62,514.85 577.62,564.38 588.31,564.38 588.31,564.38 588.31,574.18 599.00,574.18 599.00,574.18 599.00,585.70 609.69,585.70 609.69,585.70 609.69,639.26 620.38,639.26 620.38,639.26 620.38,647.90 631.06,647.90 631.06,647.90 631.06,651.36 641.75,651.36 641.75,651.36 641.75,615.65 652.44,615.65 652.44,615.65 652.44,634.66 663.12,634.66 663.12,634.66 663.12,639.26 673.81,639.26 673.81,639.26 673.81,638.11 684.50,638.11 684.50,638.11 684.50,642.72 695.19,642.72 695.19,642.72 695.19,642.72 705.88,642.72 705.88,642.72 705.88,623.14 716.56,623.14 716.56,623.14 716.56,636.38 727.25,636.38 727.25,636.38 727.25,654.24 737.94,654.24 737.94,654.24 737.94,653.09 748.62,653.09 748.62,653.09 748.62,637.54 759.31,637.54 759.31,637.54 759.31,597.79 770.00,597.79 770.00,597.79 770.00,568.42 780.69,568.42 780.69,568.42 780.69,491.81 791.38,491.81 791.38,491.81 791.38,616.80 802.06,616.80 802.06,616.80 802.06,460.13 812.75,460.13 812.75,460.13 812.75,413.47 823.44,413.47 823.44,413.47 823.44,376.61 834.12,376.61 834.12,376.61 834.12,340.32 844.81,340.32 844.81,340.32 844.81,334.56 855.50,334.56 855.50,334.56 855.50,324.77 866.19,324.77 866.19,324.77 866.19,258.53 876.88,258.53 876.88,258.53 876.88,259.10 887.56,259.10 887.56,259.10 887.56,258.53 898.25,258.53 898.25,258.53 898.25,290.21 908.94,290.21 908.94,290.21 908.94,256.22 919.62,256.22 919.62,256.22 919.62,237.79 930.31,237.79 930.31,237.79 930.31,220.51 941.00,220.51 941.00,220.51 941.00,244.13 951.69,244.13 951.69,244.13 951.69,229.73 962.38,229.73 962.38,229.73 962.38,214.18 973.06,214.18 973.06,214.18 973.06,208.42 983.75,208.42 983.75,208.42 983.75,216.48 994.44,216.48 994.44,216.48 994.44,210.72 1005.12,210.72 1005.12,210.72 1005.12,219.94 1015.81,219.94 1015.81,219.94 1015.81,215.90 1026.50,215.90 1026.50,215.90 1026.50,201.50 1037.19,201.50 1037.19,201.50 1037.19,211.30 1047.88,211.30 1047.88,211.30 1047.88,213.60 1058.56,213.60 1058.56,213.60 1058.56,229.73 1069.25,229.73 1069.25,229.73 1069.25,213.60 1079.94,213.60 1079.94,213.60 1079.94,232.03 1090.62,232.03 1090.62,232.03 1090.62,240.10 1101.31,240.10 1101.31,240.10 1101.31,247.58 1112.00,247.58" fill="none" stroke="#1d4ed8" stroke-width="2.4" opacity="0.58" stroke-linejoin="round" stroke-linecap="round"/>
<polyline points="91.34,660.00 102.03,660.00 112.72,660.00 123.41,660.00 134.09,660.00 144.78,660.00 155.47,660.00 166.16,660.00 176.84,660.00 187.53,660.00 198.22,660.00 208.91,660.00 219.59,660.00 230.28,660.00 240.97,660.00 251.66,660.00 262.34,660.00 273.03,660.00 283.72,660.00 294.41,660.00 305.09,660.00 315.78,660.00 326.47,660.00 337.16,660.00 347.84,660.00 358.53,660.00 369.22,660.00 379.91,660.00 390.59,660.00 401.28,660.00 411.97,657.71 422.66,653.14 433.34,646.29 444.03,641.71 454.72,639.43 465.41,639.43 476.09,639.43 486.78,639.43 497.47,639.43 508.16,639.43 518.84,639.43 529.53,639.43 540.22,632.57 550.91,618.86 561.59,598.29 572.28,584.57 582.97,584.57 593.66,598.29 604.34,618.86 615.03,632.57 625.72,639.43 636.41,639.43 647.09,639.43 657.78,639.43 668.47,637.14 679.16,632.57 689.84,625.71 700.53,621.14 711.22,618.86 721.91,618.86 732.59,618.86 743.28,618.86 753.97,618.86 764.66,618.86 775.34,618.86 786.03,618.86 796.72,618.86 807.41,618.86 818.09,618.86 828.78,618.86 839.47,618.86 850.16,623.43 860.84,632.57 871.53,646.29 882.22,655.43 892.91,660.00 903.59,660.00 914.28,660.00 924.97,660.00 935.66,660.00 946.34,660.00 957.03,660.00 967.72,660.00 978.41,660.00 989.09,660.00 999.78,660.00 1010.47,660.00 1021.16,660.00 1031.84,660.00 1042.53,660.00 1053.22,660.00 1063.91,660.00 1074.59,660.00 1085.28,660.00 1095.97,660.00 1106.66,660.00" fill="none" stroke="#16a34a" stroke-width="4.0" opacity="0.95" stroke-linejoin="round" stroke-linecap="round"/>
<polyline points="91.34,660.00 102.03,660.00 112.72,660.00 123.41,660.00 134.09,660.00 144.78,660.00 155.47,660.00 166.16,660.00 176.84,660.00 187.53,660.00 198.22,660.00 208.91,660.00 219.59,660.00 230.28,660.00 240.97,660.00 251.66,660.00 262.34,660.00 273.03,660.00 283.72,660.00 294.41,660.00 305.09,660.00 315.78,650.86 326.47,641.71 337.16,623.43 347.84,623.43 358.53,614.29 369.22,623.43 379.91,614.29 390.59,614.29 401.28,596.00 411.97,586.86 422.66,568.57 433.34,559.43 444.03,541.14 454.72,522.86 465.41,477.14 476.09,431.43 486.78,385.71 497.47,367.43 508.16,358.29 518.84,385.71 529.53,422.29 540.22,458.86 550.91,449.71 561.59,449.71 572.28,468.00 582.97,522.86 593.66,559.43 604.34,577.71 615.03,568.57 625.72,559.43 636.41,541.14 647.09,541.14 657.78,541.14 668.47,559.43 679.16,568.57 689.84,577.71 700.53,577.71 711.22,577.71 721.91,577.71 732.59,577.71 743.28,577.71 753.97,577.71 764.66,577.71 775.34,568.57 786.03,559.43 796.72,532.00 807.41,495.43 818.09,431.43 828.78,404.00 839.47,422.29 850.16,504.57 860.84,577.71 871.53,632.57 882.22,646.29" fill="none" stroke="#dc2626" stroke-width="4.0" opacity="0.95" stroke-linejoin="round" stroke-linecap="round"/>
<line x1="231.5" y1="104" x2="261.5" y2="104" stroke="#16a34a" stroke-width="4.0" opacity="1.0" stroke-linecap="round"/>
<text x="271.5" y="109" font-size="16" fill="#334155">Prognoza PV z rana</text>
<line x1="476.5" y1="104" x2="506.5" y2="104" stroke="#dc2626" stroke-width="4.0" opacity="1.0" stroke-linecap="round"/>
<text x="516.5" y="109" font-size="16" fill="#334155">Produkcja rzeczywista</text>
<line x1="721.5" y1="104" x2="751.5" y2="104" stroke="#1d4ed8" stroke-width="2.4" opacity="0.58" stroke-linecap="round"/>
<text x="761.5" y="109" font-size="16" fill="#334155">Cena sprzedaży</text>
<text x="1112" y="728" text-anchor="end" font-size="12" fill="#94a3b8">NIA/MZ 12/07/2026</text>
</svg>