<svg xmlns="http://www.w3.org/2000/svg" viewBox="0 0 1200 746" role="img">
<rect width="100%" height="100%" fill="#ffffff"/>
<text x="86" y="34" font-size="28" font-weight="800" fill="#111827">Prognoza PV z rana oraz produkcja rzeczywista</text>
<text x="86" y="60" font-size="14" fill="#475569">Data: 2026-07-09 | prognoza poranna: 05:00 | wygenerowano: 2026-07-09 15:21</text>
<line x1="86.00" y1="84" x2="86.00" y2="660" stroke="#dbeafe" stroke-width="1.2"/>
<text x="86.00" y="690" text-anchor="middle" font-size="16" fill="#64748b">00:00</text>
<line x1="128.75" y1="84" x2="128.75" y2="660" stroke="#eef2ff" stroke-width="0.7"/>
<line x1="171.50" y1="84" x2="171.50" y2="660" stroke="#eef2ff" stroke-width="0.7"/>
<text x="171.50" y="690" text-anchor="middle" font-size="16" fill="#64748b">02:00</text>
<line x1="214.25" y1="84" x2="214.25" y2="660" stroke="#dbeafe" stroke-width="1.2"/>
<line x1="257.00" y1="84" x2="257.00" y2="660" stroke="#eef2ff" stroke-width="0.7"/>
<text x="257.00" y="690" text-anchor="middle" font-size="16" fill="#64748b">04:00</text>
<line x1="299.75" y1="84" x2="299.75" y2="660" stroke="#eef2ff" stroke-width="0.7"/>
<line x1="342.50" y1="84" x2="342.50" y2="660" stroke="#dbeafe" stroke-width="1.2"/>
<text x="342.50" y="690" text-anchor="middle" font-size="16" fill="#64748b">06:00</text>
<line x1="385.25" y1="84" x2="385.25" y2="660" stroke="#eef2ff" stroke-width="0.7"/>
<line x1="428.00" y1="84" x2="428.00" y2="660" stroke="#eef2ff" stroke-width="0.7"/>
<text x="428.00" y="690" text-anchor="middle" font-size="16" fill="#64748b">08:00</text>
<line x1="470.75" y1="84" x2="470.75" y2="660" stroke="#dbeafe" stroke-width="1.2"/>
<line x1="513.50" y1="84" x2="513.50" y2="660" stroke="#eef2ff" stroke-width="0.7"/>
<text x="513.50" y="690" text-anchor="middle" font-size="16" fill="#64748b">10:00</text>
<line x1="556.25" y1="84" x2="556.25" y2="660" stroke="#eef2ff" stroke-width="0.7"/>
<line x1="599.00" y1="84" x2="599.00" y2="660" stroke="#dbeafe" stroke-width="1.2"/>
<text x="599.00" y="690" text-anchor="middle" font-size="16" fill="#64748b">12:00</text>
<line x1="641.75" y1="84" x2="641.75" y2="660" stroke="#eef2ff" stroke-width="0.7"/>
<line x1="684.50" y1="84" x2="684.50" y2="660" stroke="#eef2ff" stroke-width="0.7"/>
<text x="684.50" y="690" text-anchor="middle" font-size="16" fill="#64748b">14:00</text>
<line x1="727.25" y1="84" x2="727.25" y2="660" stroke="#dbeafe" stroke-width="1.2"/>
<line x1="770.00" y1="84" x2="770.00" y2="660" stroke="#eef2ff" stroke-width="0.7"/>
<text x="770.00" y="690" text-anchor="middle" font-size="16" fill="#64748b">16:00</text>
<line x1="812.75" y1="84" x2="812.75" y2="660" stroke="#eef2ff" stroke-width="0.7"/>
<line x1="855.50" y1="84" x2="855.50" y2="660" stroke="#dbeafe" stroke-width="1.2"/>
<text x="855.50" y="690" text-anchor="middle" font-size="16" fill="#64748b">18:00</text>
<line x1="898.25" y1="84" x2="898.25" y2="660" stroke="#eef2ff" stroke-width="0.7"/>
<line x1="941.00" y1="84" x2="941.00" y2="660" stroke="#eef2ff" stroke-width="0.7"/>
<text x="941.00" y="690" text-anchor="middle" font-size="16" fill="#64748b">20:00</text>
<line x1="983.75" y1="84" x2="983.75" y2="660" stroke="#dbeafe" stroke-width="1.2"/>
<line x1="1026.50" y1="84" x2="1026.50" y2="660" stroke="#eef2ff" stroke-width="0.7"/>
<text x="1026.50" y="690" text-anchor="middle" font-size="16" fill="#64748b">22:00</text>
<line x1="1069.25" y1="84" x2="1069.25" y2="660" stroke="#eef2ff" stroke-width="0.7"/>
<line x1="1112.00" y1="84" x2="1112.00" y2="660" stroke="#dbeafe" stroke-width="1.2"/>
<text x="1112.00" y="690" text-anchor="middle" font-size="16" fill="#64748b">24:00</text>
<line x1="86" y1="660.00" x2="1112" y2="660.00" stroke="#e5e7eb" stroke-width="1"/>
<text x="74" y="665.00" text-anchor="end" font-size="15" fill="#64748b">0,00</text>
<line x1="86" y1="544.80" x2="1112" y2="544.80" stroke="#e5e7eb" stroke-width="1"/>
<text x="74" y="549.80" text-anchor="end" font-size="15" fill="#64748b">0,28</text>
<line x1="86" y1="429.60" x2="1112" y2="429.60" stroke="#e5e7eb" stroke-width="1"/>
<text x="74" y="434.60" text-anchor="end" font-size="15" fill="#64748b">0,56</text>
<line x1="86" y1="314.40" x2="1112" y2="314.40" stroke="#e5e7eb" stroke-width="1"/>
<text x="74" y="319.40" text-anchor="end" font-size="15" fill="#64748b">0,84</text>
<line x1="86" y1="199.20" x2="1112" y2="199.20" stroke="#e5e7eb" stroke-width="1"/>
<text x="74" y="204.20" text-anchor="end" font-size="15" fill="#64748b">1,12</text>
<line x1="86" y1="84.00" x2="1112" y2="84.00" stroke="#e5e7eb" stroke-width="1"/>
<text x="74" y="89.00" text-anchor="end" font-size="15" fill="#64748b">1,40</text>
<text x="1124" y="665.00" font-size="15" fill="#2563eb" opacity="0.75">0,00</text>
<text x="1124" y="549.80" font-size="15" fill="#2563eb" opacity="0.75">0,30</text>
<text x="1124" y="434.60" font-size="15" fill="#2563eb" opacity="0.75">0,60</text>
<text x="1124" y="319.40" font-size="15" fill="#2563eb" opacity="0.75">0,90</text>
<text x="1124" y="204.20" font-size="15" fill="#2563eb" opacity="0.75">1,20</text>
<text x="1124" y="89.00" font-size="15" fill="#2563eb" opacity="0.75">1,50</text>
<rect x="86" y="84" width="1026" height="576" fill="none" stroke="#94a3b8" stroke-width="1.4"/>
<text x="28" y="372.00" transform="rotate(-90 28 372.00)" text-anchor="middle" font-size="17" font-weight="700" fill="#334155">kWh / slot</text>
<text x="1170" y="372.00" transform="rotate(90 1170 372.00)" text-anchor="middle" font-size="17" font-weight="700" fill="#2563eb">PLN/kWh</text>
<polyline points="86.00,368.54 96.69,368.54 96.69,368.54 96.69,388.13 107.38,388.13 107.38,388.13 107.38,396.58 118.06,396.58 118.06,396.58 118.06,407.33 128.75,407.33 128.75,407.33 128.75,395.04 139.44,395.04 139.44,395.04 139.44,403.87 150.12,403.87 150.12,403.87 150.12,405.41 160.81,405.41 160.81,405.41 160.81,407.71 171.50,407.71 171.50,407.71 171.50,407.33 182.19,407.33 182.19,407.33 182.19,408.86 192.88,408.86 192.88,408.86 192.88,408.10 203.56,408.10 203.56,408.10 203.56,409.63 214.25,409.63 214.25,409.63 214.25,408.86 224.94,408.86 224.94,408.86 224.94,408.10 235.62,408.10 235.62,408.10 235.62,408.86 246.31,408.86 246.31,408.86 246.31,408.10 257.00,408.10 257.00,408.10 257.00,411.17 267.69,411.17 267.69,411.17 267.69,408.86 278.38,408.86 278.38,408.86 278.38,407.33 289.06,407.33 289.06,407.33 289.06,403.87 299.75,403.87 299.75,403.87 299.75,406.94 310.44,406.94 310.44,406.94 310.44,398.88 321.12,398.88 321.12,398.88 321.12,395.42 331.81,395.42 331.81,395.42 331.81,381.22 342.50,381.22 342.50,381.22 342.50,378.53 353.19,378.53 353.19,378.53 353.19,362.78 363.88,362.78 363.88,362.78 363.88,349.34 374.56,349.34 374.56,349.34 374.56,351.65 385.25,351.65 385.25,351.65 385.25,339.36 395.94,339.36 395.94,339.36 395.94,356.64 406.62,356.64 406.62,356.64 406.62,368.54 417.31,368.54 417.31,368.54 417.31,393.12 428.00,393.12 428.00,393.12 428.00,362.78 438.69,362.78 438.69,362.78 438.69,383.52 449.38,383.52 449.38,383.52 449.38,397.73 460.06,397.73 460.06,397.73 460.06,421.54 470.75,421.54 470.75,421.54 470.75,402.72 481.44,402.72 481.44,402.72 481.44,432.29 492.12,432.29 492.12,432.29 492.12,452.26 502.81,452.26 502.81,452.26 502.81,469.54 513.50,469.54 513.50,469.54 513.50,466.85 524.19,466.85 524.19,466.85 524.19,476.83 534.88,476.83 534.88,476.83 534.88,493.34 545.56,493.34 545.56,493.34 545.56,509.86 556.25,509.86 556.25,509.86 556.25,497.18 566.94,497.18 566.94,497.18 566.94,511.78 577.62,511.78 577.62,511.78 577.62,521.76 588.31,521.76 588.31,521.76 588.31,545.18 599.00,545.18 599.00,545.18 599.00,541.34 609.69,541.34 609.69,541.34 609.69,559.01 620.38,559.01 620.38,559.01 620.38,575.52 631.06,575.52 631.06,575.52 631.06,576.29 641.75,576.29 641.75,576.29 641.75,572.06 652.44,572.06 652.44,572.06 652.44,585.89 663.12,585.89 663.12,585.89 663.12,597.02 673.81,597.02 673.81,597.02 673.81,614.30 684.50,614.30 684.50,614.30 684.50,603.17 695.19,603.17 695.19,603.17 695.19,589.73 705.88,589.73 705.88,589.73 705.88,591.65 716.56,591.65 716.56,591.65 716.56,579.74 727.25,579.74 727.25,579.74 727.25,590.11 737.94,590.11 737.94,590.11 737.94,571.68 748.62,571.68 748.62,571.68 748.62,521.76 759.31,521.76 759.31,521.76 759.31,505.25 770.00,505.25 770.00,505.25 770.00,500.26 780.69,500.26 780.69,500.26 780.69,489.50 791.38,489.50 791.38,489.50 791.38,481.82 802.06,481.82 802.06,481.82 802.06,473.76 812.75,473.76 812.75,473.76 812.75,484.90 823.44,484.90 823.44,484.90 823.44,456.86 834.12,456.86 834.12,456.86 834.12,436.90 844.81,436.90 844.81,436.90 844.81,407.33 855.50,407.33 855.50,407.33 855.50,432.67 866.19,432.67 866.19,432.67 866.19,413.86 876.88,413.86 876.88,413.86 876.88,386.59 887.56,386.59 887.56,386.59 887.56,349.73 898.25,349.73 898.25,349.73 898.25,377.38 908.94,377.38 908.94,377.38 908.94,353.57 919.62,353.57 919.62,353.57 919.62,333.98 930.31,333.98 930.31,333.98 930.31,255.26 941.00,255.26 941.00,255.26 941.00,278.30 951.69,278.30 951.69,278.30 951.69,254.88 962.38,254.88 962.38,254.88 962.38,218.02 973.06,218.02 973.06,218.02 973.06,183.07 983.75,183.07 983.75,183.07 983.75,193.44 994.44,193.44 994.44,193.44 994.44,214.56 1005.12,214.56 1005.12,214.56 1005.12,261.02 1015.81,261.02 1015.81,261.02 1015.81,316.70 1026.50,316.70 1026.50,316.70 1026.50,286.75 1037.19,286.75 1037.19,286.75 1037.19,295.20 1047.88,295.20 1047.88,295.20 1047.88,327.07 1058.56,327.07 1058.56,327.07 1058.56,349.34 1069.25,349.34 1069.25,349.34 1069.25,335.14 1079.94,335.14 1079.94,335.14 1079.94,342.05 1090.62,342.05 1090.62,342.05 1090.62,350.11 1101.31,350.11 1101.31,350.11 1101.31,360.10 1112.00,360.10" fill="none" stroke="#1d4ed8" stroke-width="2.4" opacity="0.58" stroke-linejoin="round" stroke-linecap="round"/>
<polyline points="91.34,660.00 102.03,660.00 112.72,660.00 123.41,660.00 134.09,660.00 144.78,660.00 155.47,660.00 166.16,660.00 176.84,660.00 187.53,660.00 198.22,660.00 208.91,660.00 219.59,660.00 230.28,660.00 240.97,660.00 251.66,660.00 262.34,660.00 273.03,660.00 283.72,660.00 294.41,660.00 305.09,660.00 315.78,660.00 326.47,660.00 337.16,660.00 347.84,660.00 358.53,660.00 369.22,658.86 379.91,656.57 390.59,653.14 401.28,650.86 411.97,645.14 422.66,636.00 433.34,622.29 444.03,613.14 454.72,602.86 465.41,591.43 476.09,574.29 486.78,562.86 497.47,556.00 508.16,553.71 518.84,550.29 529.53,548.00 540.22,549.14 550.91,552.57 561.59,557.14 572.28,558.29 582.97,552.57 593.66,540.00 604.34,522.86 615.03,511.43 625.72,489.71 636.41,457.71 647.09,409.71 657.78,377.71 668.47,374.29 679.16,399.43 689.84,437.14 700.53,462.29 711.22,445.14 721.91,385.71 732.59,296.57 743.28,237.14 753.97,216.57 764.66,234.86 775.34,262.29 786.03,280.57 796.72,318.29 807.41,370.86 818.09,447.43 828.78,490.86 839.47,525.14 850.16,550.29 860.84,594.86 871.53,624.57 882.22,638.29 892.91,636.00 903.59,632.57 914.28,630.29 924.97,630.29 935.66,632.57 946.34,636.00 957.03,638.29 967.72,641.71 978.41,646.29 989.09,653.14 999.78,657.71 1010.47,660.00 1021.16,660.00 1031.84,660.00 1042.53,660.00 1053.22,660.00 1063.91,660.00 1074.59,660.00 1085.28,660.00 1095.97,660.00 1106.66,660.00" fill="none" stroke="#16a34a" stroke-width="4.0" opacity="0.95" stroke-linejoin="round" stroke-linecap="round"/>
<polyline points="91.34,660.00 102.03,660.00 112.72,660.00 123.41,660.00 134.09,660.00 144.78,660.00 155.47,660.00 166.16,660.00 176.84,660.00 187.53,660.00 198.22,660.00 208.91,660.00 219.59,660.00 230.28,660.00 240.97,660.00 251.66,660.00 262.34,660.00 273.03,660.00 283.72,660.00 294.41,660.00 305.09,655.43 315.78,650.86 326.47,641.71 337.16,637.14 347.84,628.00 358.53,623.43 369.22,618.86 379.91,614.29 390.59,605.14 401.28,591.43 411.97,582.29 422.66,573.14 433.34,568.57 444.03,564.00 454.72,568.57 465.41,577.71 476.09,586.86 486.78,596.00 497.47,596.00 508.16,596.00 518.84,573.14 529.53,545.71 540.22,513.71 550.91,500.00 561.59,495.43 572.28,490.86 582.97,500.00 593.66,518.29 604.34,545.71 615.03,554.86 625.72,554.86 636.41,545.71 647.09,541.14 657.78,527.43 668.47,504.57 679.16,468.00 689.84,413.14 700.53,376.57 711.22,362.86 721.91,399.43 732.59,420.00" fill="none" stroke="#dc2626" stroke-width="4.0" opacity="0.95" stroke-linejoin="round" stroke-linecap="round"/>
<line x1="231.5" y1="104" x2="261.5" y2="104" stroke="#16a34a" stroke-width="4.0" opacity="1.0" stroke-linecap="round"/>
<text x="271.5" y="109" font-size="16" fill="#334155">Prognoza PV z rana</text>
<line x1="476.5" y1="104" x2="506.5" y2="104" stroke="#dc2626" stroke-width="4.0" opacity="1.0" stroke-linecap="round"/>
<text x="516.5" y="109" font-size="16" fill="#334155">Produkcja rzeczywista</text>
<line x1="721.5" y1="104" x2="751.5" y2="104" stroke="#1d4ed8" stroke-width="2.4" opacity="0.58" stroke-linecap="round"/>
<text x="761.5" y="109" font-size="16" fill="#334155">Cena sprzedaży</text>
<text x="1112" y="728" text-anchor="end" font-size="12" fill="#94a3b8">NIA/MZ 09/07/2026</text>
</svg>