<?xml version="1.0" encoding="utf-8"?>
<!DOCTYPE svg PUBLIC "-//W3C//DTD SVG 1.0//EN" "http://www.w3.org/TR/2001/REC-SVG-20010904/DTD/svg10.dtd">
<svg version="1.0" xmlns="http://www.w3.org/2000/svg" width="505px" height="474px" viewBox="0 0 505 474" preserveAspectRatio="xMidYMid meet">
<defs>
  <linearGradient id="grad1" x1="0%" y1="0%" x2="100%" y2="100%">
    <stop offset="0%" style="stop-color:#FFA500;stop-opacity:1"/>
    <stop offset="100%" style="stop-color:#C00000;stop-opacity:1"/>
  </linearGradient>
</defs>

 <g fill="url(#grad1)">
  <path d="M250.11 459.14 c-4.30 -0.24 -5.98 -0.53 -7.75 -1.39 -3.54 -1.72 -6.41 -4.59 -8.13 -8.13 l-1.58 -3.20 -0.24 -190.95 c-0.19 -169.05 -0.33 -191 -0.96 -191.38 -1.20 -0.77 -112 -0.62 -113 0.14 -0.77 0.53 -0.81 7.08 -0.91 92.15 l-0.14 91.58 -1.10 2.73 c-1.39 3.40 -4.78 7.27 -7.79 8.75 -4.06 2.10 -6.55 2.20 -47.77 2.06 l-38.97 -0.14 -2.77 -1.10 c-3.54 -1.43 -7.17 -4.97 -8.85 -8.56 -1.10 -2.39 -1.24 -3.40 -1.29 -7.56 0 -4.45 0.10 -5.02 1.58 -7.99 1.77 -3.63 3.92 -5.74 7.75 -7.51 l2.63 -1.24 30.75 -0.24 c26.64 -0.19 30.80 -0.33 31.18 -0.96 0.29 -0.43 0.48 -35.29 0.48 -91.87 0 -100.76 -0.24 -93.59 3.11 -98.08 2.01 -2.73 4.83 -4.69 8.61 -6.07 l2.87 -1.05 77.95 0.14 77.95 0.14 3.11 1.48 c3.92 1.91 6.41 4.40 8.32 8.32 l1.48 3.11 0.24 190.71 c0.24 188.13 0.24 190.76 1.15 191.43 0.81 0.57 9.23 0.67 56.24 0.67 43.47 0 55.47 -0.14 56.10 -0.57 0.77 -0.57 0.81 -7.03 0.91 -92.44 l0.14 -91.82 1.34 -2.87 c1.72 -3.73 4.97 -6.98 8.66 -8.70 l2.92 -1.34 42.32 0 42.32 0 2.25 1.05 c3.16 1.43 6.74 4.97 8.08 7.94 1 2.15 1.15 3.25 1.15 7.99 0 5.07 -0.10 5.74 -1.34 8.23 -1.63 3.35 -4.78 6.22 -8.42 7.65 -2.68 1.10 -2.68 1.10 -32.57 1.24 -16.45 0.05 -30.37 0.19 -30.94 0.33 l-1.10 0.24 -0.10 91.72 -0.14 91.67 -1.05 2.58 c-1.48 3.63 -3.30 6.03 -5.98 7.99 -4.54 3.35 0.91 3.11 -80.01 3.25 -40.22 0.10 -75.65 0 -78.67 -0.14z"/>
  <path d="M158.48 261.11 c-3.30 -0.67 -6.60 -2.68 -9.18 -5.50 -2.96 -3.25 -3.92 -5.98 -3.92 -11.48 0 -2.15 0.33 -4.97 0.72 -6.36 0.96 -3.25 4.64 -7.27 8.27 -9.04 l2.73 -1.34 17.93 0 17.93 0 2.68 1.34 c3.16 1.53 6.31 4.73 7.75 7.89 0.86 1.87 1.05 3.16 1.05 7.51 0 4.69 -0.14 5.55 -1.24 7.89 -1.67 3.54 -4.26 6.03 -8.03 7.84 l-3.16 1.48 -15.78 0.10 c-8.66 0.05 -16.69 -0.10 -17.74 -0.33z"/>
  <path d="M307.83 261.11 c-5.60 -1 -10.38 -4.83 -12.29 -9.85 -1.24 -3.35 -1.34 -10.43 -0.19 -13.77 1.05 -3.11 5.21 -7.51 8.42 -8.94 2.53 -1.15 2.63 -1.15 20.23 -1.15 l17.69 0 3.20 1.58 c3.83 1.87 6.17 4.45 7.60 8.18 0.86 2.30 0.96 3.44 0.81 7.94 -0.14 4.54 -0.38 5.60 -1.43 7.70 -1.63 3.11 -4.97 6.07 -8.46 7.46 -2.53 1 -3.44 1.05 -17.98 1.15 -8.42 0.10 -16.36 -0.05 -17.60 -0.29z"/>
 </g>
 <g fill="#ffffff">
  <path d="M0 237.20 l0 -237.20 252.50 0 252.50 0 0 237.20 0 237.20 -252.50 0 -252.50 0 0 -237.20z m402.76 219.79 c4.59 -1.39 8.42 -5.12 10.57 -10.38 l1.05 -2.58 0.10 -91.53 c0.10 -50.36 0.29 -91.67 0.43 -91.82 0.14 -0.14 14.06 -0.38 30.94 -0.53 30.56 -0.24 30.70 -0.24 33.38 -1.34 3.63 -1.43 6.79 -4.30 8.42 -7.65 1.82 -3.68 1.91 -9.56 0.19 -13.34 -1.29 -2.96 -4.88 -6.46 -8.08 -7.94 l-2.25 -1.05 -40.89 0 -40.89 0 -2.92 1.34 c-3.68 1.72 -6.93 4.97 -8.66 8.70 l-1.34 2.87 -0.14 91.82 c-0.10 85.41 -0.14 91.87 -0.91 92.44 -0.62 0.43 -12.91 0.57 -57.53 0.57 -48.25 0 -56.86 -0.10 -57.67 -0.67 -0.91 -0.67 -0.91 -3.30 -1.15 -191.43 l-0.24 -190.71 -1.48 -3.11 c-1.91 -3.92 -4.40 -6.41 -8.32 -8.32 l-3.11 -1.48 -76.52 -0.14 -76.52 -0.14 -2.87 1.05 c-3.78 1.39 -6.60 3.35 -8.61 6.07 -3.35 4.50 -3.11 -2.68 -3.11 98.08 0 56.57 -0.19 91.44 -0.48 91.87 -0.38 0.62 -4.54 0.77 -31.18 0.96 l-30.75 0.24 -2.63 1.24 c-3.78 1.77 -5.98 3.87 -7.75 7.51 -3.01 6.07 -1.72 12.77 3.40 17.74 1.48 1.43 3.49 2.82 5.16 3.49 l2.77 1.10 37.54 0.14 c39.74 0.14 42.27 0.05 46.34 -2.06 3.01 -1.48 6.41 -5.36 7.79 -8.75 l1.10 -2.73 0.14 -91.58 c0.10 -85.08 0.14 -91.63 0.91 -92.15 1 -0.77 114.68 -0.91 115.87 -0.14 0.62 0.38 0.77 22.33 0.96 191.38 l0.24 190.95 1.58 3.20 c1.72 3.54 4.59 6.41 8.13 8.13 1.77 0.86 3.40 1.15 7.75 1.34 3.01 0.14 37.78 0.24 77.23 0.14 60.64 -0.10 72.07 -0.19 73.98 -0.81z m-209.03 -198.56 c3.78 -1.82 6.36 -4.30 8.03 -7.84 1.63 -3.49 1.72 -9.09 0.19 -12.53 -1.43 -3.16 -4.54 -6.36 -7.75 -7.89 l-2.68 -1.34 -16.50 0 -16.50 0 -2.73 1.34 c-9.52 4.69 -12 16.45 -5.07 24.01 2.58 2.82 5.88 4.83 9.18 5.50 1.05 0.24 8.42 0.38 16.31 0.33 l14.35 -0.10 3.16 -1.48z m148.25 0.38 c3.49 -1.39 6.84 -4.35 8.42 -7.46 0.96 -1.87 1.29 -3.35 1.48 -6.26 0.33 -6.84 -2.44 -11.76 -8.42 -14.68 l-3.20 -1.58 -16.26 0 c-16.12 0 -16.31 0 -18.79 1.15 -3.20 1.43 -7.36 5.83 -8.42 8.94 -2.49 7.32 0.91 15.83 7.56 19.08 3.87 1.91 6.03 2.10 21.09 1.96 13.06 -0.10 14.01 -0.19 16.55 -1.15z"/>
 </g>
</svg>